<?xml version="1.0" encoding="UTF-8"?>
<svg id="Layer_2" data-name="Layer 2" xmlns="http://www.w3.org/2000/svg" viewBox="0 0 473.75 514.15">
  <defs>
    <style>
      .cls-1, .cls-2, .cls-3, .cls-4, .cls-5, .cls-6, .cls-7, .cls-8, .cls-9 {
        stroke-width: 0px;
      }

      .cls-2 {
        fill: #f2ea19;
      }

      .cls-3 {
        fill: #07090a;
      }

      .cls-4 {
        fill: #a7a4a4;
      }

      .cls-5 {
        fill: #a09d9d;
      }

      .cls-6 {
        fill: #f37f82;
      }

      .cls-7 {
        fill: #fff;
      }

      .cls-8 {
        fill: #fefdfd;
      }

      .cls-9 {
        fill: #ec2027;
      }
    </style>
  </defs>
  <g id="katman_1" data-name="katman 1">
    <g>
      <path class="cls-1" d="m377.72,0c2.43.96,4.82,1.97,7.01,3.43,7.8,5.19,12.64,12.48,15.15,21.4,1.87,6.56,2.19,13.27,1.59,20.03-.06,1.39-.22,2.77-.47,4.14,1.96.03,3.91.17,5.86.4,5.01.66,9.79,2.03,14.03,4.85,7.46,4.98,10.92,12.21,11.57,20.94.44,5.92-.63,11.62-2.44,17.24-3.5,10.86-7.84,21.35-13.63,31.19-1.85,3.21-3.94,6.27-6.25,9.16-.57.7-.62,1.24-.22,2.06,5.23,10.55,8.34,21.75,10.13,33.35.22,1.4.24,2.85.72,4.29,3.69-.67,7.36-1.32,11.06-1.83,4.08-.56,8.17-.95,12.27-1.25,6.49-.47,13-.48,19.5-.37,2.26.04,4.53.17,6.79.32,2.14.15,3.36,1.58,3.36,3.82-.02,2.14-1.39,3.6-3.51,3.68-1.01.03-2.03,0-3.04-.07-7.33-.55-14.67-.28-21.99.15-7.49.45-14.95,1.4-22.31,2.86-1.52.3-1.55.32-1.47,1.97.26,4.89.24,9.78-.06,14.66-.37,5.83-.83,11.66-1.14,17.63,1.29.1,2.64.24,3.99.32,4.4.29,8.81.5,13.21.86,5.11.43,10.21.87,15.28,1.66,2.53.37,5.06.78,7.58,1.18.53.08,1.06.2,1.57.37,1.97.67,3.02,2.81,2.36,4.78-.58,1.7-2.27,2.76-4.05,2.52-2.06-.29-4.11-.68-6.17-1.02-4.77-.75-9.57-1.24-14.37-1.68-6.06-.56-12.13-.9-18.2-1.27-.48-.03-.96-.04-1.43-.1-.75-.1-1.02.15-1.17.91-.81,4.21-1.89,8.36-3.23,12.44-1.76,5.38-3.94,10.61-6.52,15.65-.24.47-.59.9-.63,1.58,2.84.89,5.71,1.75,8.56,2.69,9.33,3.08,18.41,6.74,26.72,12.09,1.82,1.15,3.56,2.41,5.23,3.78,1.32,1.09,1.81,2.5,1.28,4.16-.64,1.98-2.76,3.07-4.74,2.43-.39-.13-.76-.32-1.09-.56-1.03-.71-1.99-1.53-3.01-2.24-6.34-4.45-13.34-7.57-20.53-10.3-4.95-1.87-9.99-3.46-15.09-4.85-1.44-.4-1.46-.41-2.18.71-11.02,16.94-25.9,29.6-43.57,39.14-1.25.68-2.52,1.32-3.79,1.99.18.26.44.46.75.56,8.78,3.85,15.26,10.24,20.11,18.38,4.07,6.9,6.63,14.58,7.52,22.53.85,7.05.75,14.04-1.12,20.94-.62,2.37-1.49,4.66-2.61,6.83-.37.75-.37,1.21.18,1.87,9.74,12.12,15.98,25.92,19.06,41.09,5.76,28.43-2.67,58.25-23.23,78.69-10.79,10.73-23.71,17.63-38.6,20.79-1.63.35-3.28.57-4.93.84-1.74.35-3.5.06-5.25.16-10.75-.25-20.11-3.98-28.09-11.2-8.67-7.84-13.51-17.87-16.84-28.81-1.06-3.62-1.93-7.29-2.61-11-.91.17-1.3.82-1.77,1.3-9.58,9.56-19.24,19.03-28.69,28.74-5.86,6.01-16.13,6.34-22.55.75-7.24-6.29-14.6-12.45-21.83-18.76-.59-.51-1.12-1.09-1.68-1.61-1.44-1.32-1.7-1.28-2.56.41-2.08,4.16-4.45,8.17-7.09,12.01-6.34,9.14-14.1,16.79-24.03,22.02-7.27,3.81-14.99,6.12-23.29,6.14h-7.04c-11.74-.15-22.04-4.31-31.13-11.51-9.18-7.27-15.59-16.69-20.38-27.27-3.85-8.55-6.58-17.57-8.11-26.82-1.47-8.64-.57-17.12,1.44-25.54,3.01-12.59,8.3-24.11,16.33-34.31,1.22-1.55,2.49-3.05,3.85-4.48.68-.72.77-1.36.25-2.24-6.95-11.72-6.66-24.12-3.14-36.69,2.17-7.74,6.14-14.6,11.52-20.6,1.15-1.23,1.99-2.7,2.46-4.31.93-3.21,2.21-6.31,3.83-9.24.75-1.36.63-2.01-.68-2.83-5.49-3.48-10.75-7.32-15.74-11.48-2.3-1.9-4.52-3.89-6.76-5.86-.92-.8-1.68-.86-2.71-.24-9.76,5.83-19.01,12.32-27.44,19.97-3.73,3.39-7.02,7.13-10.24,10.96-1.07,1.27-2.24,2.31-4.05,2.27-2.27,0-4.11-1.84-4.11-4.1,0-.71.18-1.4.53-2.02.75-1.22,1.61-2.37,2.57-3.43,5.52-6.63,11.88-12.37,18.68-17.65,5.67-4.38,11.58-8.43,17.71-12.13,1.47-.89,1.49-1.09.41-2.24-6.65-6.94-12.58-14.53-17.71-22.66-1.53-2.43-1.55-2.35-4.24-1.4-9.15,3.22-17.96,7.14-26.13,12.41-1.49.97-2.93,2.06-4.41,3.06-2.45,1.66-4.68,1.35-6.24-.88-1.4-2-.85-4.44,1.37-6.07,9.52-6.96,20.02-12.03,31.07-16.01.34-.12.68-.23,1.02-.35,1.72-.64,1.84-.86,1.05-2.45-4.74-9.44-8.1-19.52-9.96-29.93-.23-1.33-.77-1.72-2.15-1.6-10.54.92-20.89,3.34-30.73,7.2-3.96,1.5-7.83,3.23-11.59,5.18-2.8,1.49-5.1.48-6.49-2.75v-1.43c.39-1.84,1.59-2.96,3.22-3.77,12.91-6.48,26.5-10.8,40.86-12.51,1.06-.13,2.12-.29,3.2-.35,1.87-.1,2.04-.3,2-2.13-.07-4.05-.41-8.09-.39-12.15.04-11.15,1.65-22.11,4-32.97,3.23-14.93,8.1-29.31,14.12-43.33.64-1.49.29-2.53-.61-3.73-6.64-8.92-10.91-18.83-12.53-29.88-1.77-12.12.32-23.62,5.27-34.71,2.56-5.85,5.85-11.36,9.79-16.4,2.94-3.73,6.88-5.7,11.52-6.11,3.08-.31,6.18-.47,9.28-.47,22.17.39,43.9,6.32,63.2,17.24,1.23.75,2.71.97,4.11.62,11.42-2.5,22.92-4.62,34.47-6.48,10.13-1.63,20.29-3,30.51-3.89,6.89-.59,13.78-1.01,20.69-1.05,1.8,0,3.56.33,5.35.41,1.5.16,2.95-.56,3.73-1.85,4.26-6.11,9.27-11.53,15.4-15.81,5.72-4,11.98-6.58,19.03-7.11,8.69-.66,16.97.68,24.76,4.73,3.91,2.08,7.36,4.92,10.16,8.36,1.84,2.2,1.8,2.24,4.08.37,6.91-5.64,14.25-10.63,22.24-14.62,4.58-2.31,9.38-4.15,14.33-5.49,2.87-.79,5.84-1.21,8.82-1.23.46,0,.96.16,1.38-.18h5.73Z"/>
      <path class="cls-5" d="m147.52,513.81c-.02.11-.02.23,0,.34h-7.89c.02-.11.02-.23,0-.34h7.89Z"/>
      <path class="cls-4" d="m327.6,514.15c.02-.11.02-.22,0-.34h5.76c-.01.11-.01.23,0,.34h-5.76Z"/>
      <path class="cls-8" d="m246.2,40.74c-1.19,2.44-2.3,4.61-3.31,6.82-3.4,7.5-6.16,15.22-7.75,23.33-2.64,13.45,2.03,24.13,12.52,32.47,5.56,4.42,12.1,6.76,19.06,8,5.5.98,11.05.92,16.59.61,5.41-.31,10.76-1.15,15.84-3.21,2.33-.91,4.49-2.21,6.39-3.82.58.07.77.57,1.08.9,6.09,6.73,14.31,11.17,23.28,12.58,4.24.72,8.58.68,12.81-.12,1.06-.21,1.45.11,1.89.98,3.07,5.97,6.76,11.51,11.42,16.36,5.12,5.34,11.02,9.48,18.23,11.47,10.34,2.86,19.67.79,27.92-6.06.5-.42,1-.85,1.49-1.26.54.31.64.88.84,1.35,3.87,8.91,6.54,18.3,7.95,27.91.21,1.35.33,2.72.62,4.06.22,1.02-.22,1.36-1.08,1.57-4.14,1.07-8.2,2.41-12.16,4.02-3.16,1.21-6.22,2.69-9.14,4.41-1.66,1.01-2.37,2.44-2.08,4,.51,2.73,3.28,4,5.79,2.56,2.43-1.38,4.95-2.61,7.53-3.68,3.41-1.39,6.88-2.6,10.41-3.64.47-.18.99-.24,1.49-.17.12,4.87.24,9.76-.12,14.64-.34,4.7-.77,9.39-.94,14.1-.1,2.88-.16,2.9-2.95,2.83-2.92-.07-5.84-.18-8.76-.26-.65-.05-1.31.02-1.94.2-1.77.6-2.93,2.19-2.75,3.91.14,1.87,1.67,3.32,3.55,3.36,3.27.15,6.55.2,9.83.3.5-.05,1.01,0,1.49.17-.75,3.9-1.76,7.74-3.02,11.5-1.81,5.54-4.12,10.92-6.89,16.05-.68,1.26-.69,1.25-2.16.93-3.14-.68-6.27-1.37-9.41-2.02-.64-.13-1.3-.19-1.95-.18-1.8-.07-3.36,1.21-3.65,2.99-.31,1.92.63,3.69,2.49,4.2,2.18.59,4.41.94,6.62,1.41,1.05.15,2.08.42,3.08.79-.33.52-.6,1.01-.93,1.49-8.98,12.87-20.46,23.03-33.88,31.06-5.24,3.06-10.63,5.83-16.17,8.3-.95.44-1.34.2-1.87-.54-8.17-11.32-19.31-17.91-32.84-20.71-6.01-1.26-12.16-1.71-18.29-1.32-5.82.37-11.27,2.27-16.51,4.78-8.42,4.05-15.79,9.56-22.73,15.73-7.91,7.04-15.05,14.81-21.7,23.02-.56.69-1.12,1.4-1.7,2.12-.57-.17-.77-.69-1.08-1.08-6.19-7.75-12.73-15.18-20.05-21.88s-15.14-12.53-24.3-16.42c-7.05-2.99-14.38-4.22-21.98-3.36-9.47,1.09-18.05,4.55-25.8,10.08-5,3.59-9.42,7.93-13.08,12.88-.31.42-.52.95-1.14,1.24-8-5.1-15.55-10.88-22.57-17.28,2.96-1.69,5.92-3.05,8.85-4.45.59-.28,1.21-.5,1.79-.81,1.87-.97,2.61-3.01,1.82-4.85-.74-1.87-2.86-2.79-4.74-2.05-.05.02-.1.04-.15.06-3.47,1.41-6.79,3.14-10.12,4.85-1.06.54-2.16,1.6-3.15,1.49-1.12-.12-1.87-1.55-2.71-2.45-6.15-6.42-11.67-13.42-16.49-20.9-.35-.55-.69-1.12-1.12-1.78,2.53-.9,5.06-1.41,7.57-1.98,2.01-.46,3.2-1.87,3.21-3.73.04-2.02-1.56-3.69-3.57-3.73-.04,0-.09,0-.13,0-1.51-.02-2.92.54-4.36.85-1.74.37-3.46.84-5.16,1.37-1.3.41-1.37.7-2.17-.88-2.9-5.67-5.33-11.57-7.24-17.65-1.24-4.04-2.26-8.14-3.06-12.29-.1-.29-.09-.6.03-.87.31-.17.68-.22,1.03-.15,6.61.23,13.2.64,19.66,2.24,2.85.7,5.17-1.14,4.97-3.9-.12-1.62-1.22-2.93-2.99-3.36-2.6-.65-5.23-1.15-7.89-1.49-4.96-.66-9.96-.99-14.97-.99-.73,0-1.12-.17-1.12-.96,0-.35-.1-.71-.13-1.06-.61-9.66-.54-19.3.81-28.92,2.61-18.77,8.07-36.71,15.26-54.18,1.02-2.48,2.07-4.94,3.2-7.37.43-.93.41-1.49-.34-2.31-6.37-6.98-10.94-15.42-13.31-24.57-3.05-11.67-1.91-23.04,2.61-34.14,2.36-5.67,5.41-11.03,9.06-15.97,1.59-2.29,4.14-3.72,6.92-3.88,5.35-.43,10.73-.42,16.08.04,9.37.76,18.63,2.6,27.58,5.48,9.35,3,18.32,7.07,26.74,12.12.93.61,2.08.8,3.16.53,8.21-1.89,16.51-3.45,24.82-4.97,6.9-1.27,13.82-2.41,20.76-3.44,5.12-.75,10.26-1.37,15.41-1.96,7.7-.88,15.43-1.37,23.17-1.6,2.19-.08,4.4.09,6.86.16Z"/>
      <path class="cls-6" d="m335.62,299.79c-13.66,4.31-22.02,13.5-25.31,27.2-1.46,6.03,0,11.83,2.74,17.31,1.24,2.45,2.77,4.75,4.56,6.83.58.68,1.17,1.35,1.77,2.02,2.47,2.77,4.18,5.85,4.79,9.61.76,4.79,2.52,9.37,5.16,13.44,1.78,2.71,3.98,5.12,6.52,7.13-1.12,2.24-2.43,4.28-3.73,6.34-6.96,11.02-15.04,21.2-23.55,31.04-11.52,13.32-23.74,25.98-36.12,38.49-9.27,9.37-18.63,18.66-27.94,27.99-1.87,1.89-4.08,2.81-6.76,2.61-1.93-.14-3.51-.99-4.97-2.21-5.72-4.77-11.39-9.62-17-14.53-14.05-12.32-27.75-25.01-40.93-38.23-11.92-11.97-23.41-24.33-33.87-37.62-.54-.7-1.19-1.33-1.57-2.2,2.01-.7,3.98-1.38,5.8-2.42,6.1-3.49,9.88-8.83,12.32-15.27.83-2.3,1.52-4.64,2.06-7.02.5-2.03,1.42-3.94,2.7-5.6,1.59-2.09,3.3-4.11,5.06-6.03,4.67-5.13,7.91-10.98,9.35-17.82,2.02-9.6-1.87-24.75-13.44-31.23-5.11-2.86-10.59-3.79-16.35-3.57-7.12.26-13.64,2.56-19.86,5.86-.57.3-1.12.63-1.93,1.08.19-.74.53-1.44.98-2.05,6.68-11.16,15.97-19.15,28.42-23.25,5.04-1.7,10.37-2.37,15.68-1.97,4.62.37,8.96,1.81,13.14,3.78,6.75,3.18,12.69,7.56,18.25,12.47,8.68,7.64,16.31,16.26,23.2,25.51,2.63,3.53,6.77,3.78,9.58.03,7.7-10.35,16.54-19.81,26.34-28.19,5.7-4.85,11.76-9.14,18.53-12.4,6.94-3.39,14.71-4.74,22.39-3.87,7.13.75,13.97,2.28,20.37,5.55,4.64,2.36,8.8,5.56,12.26,9.44.5.54,1.04,1.02,1.34,1.76Z"/>
      <path class="cls-7" d="m375.77,378.06c1.14,1.23,2.16,2.57,3.05,4,7.46,11.27,12.66,23.51,14.52,36.92,3.28,23.72-2.43,45.09-17.88,63.53-10.08,12.03-22.97,19.83-38.36,22.88-14.35,2.84-26.42-1.78-35.86-12.94-4.89-5.77-7.86-12.6-10.08-19.78-1.71-5.53-2.76-11.2-3.57-16.93-.14-1,.31-1.54.91-2.15,8.36-8.58,16.56-17.34,24.44-26.38,9.17-10.52,17.91-21.39,25.38-33.22,1.21-1.91,2.36-3.86,3.52-5.8.75-1.22.72-1.22,2-.82,2.38.77,4.84,1.25,7.33,1.44,7.07.53,13.17-2.04,18.91-5.81,2.08-1.43,3.99-3.09,5.7-4.95Z"/>
      <path class="cls-7" d="m108.81,388.39c4.93,3.94,10.36,6.07,16.25,7.09,1.41.23,2.83.38,4.26.46.7-.02,1.37.31,1.78.88,15.25,20.21,32.81,38.29,51.03,55.77,4.39,4.21,8.86,8.33,13.32,12.47.51.48.87.79.49,1.62-4.81,10.45-10.96,19.94-19.78,27.5-6.77,5.81-14.51,9.81-23.33,11.26-18.41,3.02-34.01-2.21-46.28-16.5-6.49-7.56-10.85-16.33-14.07-25.7-2.3-6.58-3.85-13.4-4.63-20.33-.44-4.07,0-8.11.66-12.11,1.85-11.23,5.66-21.75,11.8-31.35,2.25-3.52,4.8-6.83,7.64-9.89.31-.38.59-.77.86-1.17Z"/>
      <path class="cls-9" d="m277.3,104.56c-5.9.21-11.79-.78-17.3-2.9-4.73-1.87-8.89-4.58-12.18-8.51-4.97-5.94-6.95-12.73-5.32-20.35,3.36-15.7,9.73-30,20.04-42.42,3.84-4.63,8.36-8.51,13.79-11.2,3.99-2.04,8.41-3.11,12.89-3.15,4.99,0,9.88.54,14.56,2.36,8.77,3.4,14.08,9.91,16.64,18.82.37,1.31.57,2.68.91,4,.16.65,0,.99-.62,1.24-3.36,1.39-6.5,3.26-9.33,5.55-.6.49-1.09.21-1.65.04-5.31-1.52-10.6-1.49-15.81.37-6.46,2.31-10.82,6.66-12.34,13.47-1.23,5.55-.07,10.79,2.72,15.68,2.95,5.15,7.23,8.99,12.35,11.9.79.4,1.38,1.11,1.62,1.96.62,1.99,1.41,3.93,2.37,5.78.72,1.43.72,1.46-.59,2.47-2.02,1.55-4.34,2.48-6.77,3.13-5.18,1.35-10.44,1.82-15.97,1.76Z"/>
      <path class="cls-7" d="m148.59,313.59c2.36-.06,4.72.27,6.98.97,7.09,2.2,11.03,7.33,13.06,14.18,2.38,8.09.32,15.3-4.53,21.87-1.84,2.49-3.96,4.77-6,7.09-3.16,3.61-5.38,7.67-6.34,12.41-.45,2.1-1.13,4.14-2.02,6.09-3.03,6.92-8.02,11.23-15.74,12-7.22.71-13.85-.91-19.7-5.23-4.85-3.55-7.56-8.53-8.66-14.34-2.06-10.93-.16-21.27,5.39-30.83,6.54-11.27,16.05-19.03,28.55-22.93,2.91-.93,5.96-1.36,9.01-1.29Z"/>
      <path class="cls-9" d="m398.36,56.6c5.73-.02,10.45.43,14.93,2.29,6.58,2.73,10.2,7.76,11.33,14.7.69,4.32.41,8.73-.81,12.93-3.51,12.32-8.29,24.1-15.05,35.02-2.9,4.68-6.21,9.04-10.36,12.72-3.25,2.88-6.85,5.18-11.17,6.08-4.82,1-9.48.24-13.98-1.62-5.3-2.18-9.56-5.77-13.3-10.02-3.08-3.57-5.75-7.48-7.96-11.64-.62-1.12-.61-1.18.53-1.7,2.13-.93,4.16-2.09,6.05-3.45.73-.6,1.71-.8,2.61-.53,2.14.53,4.34.77,6.55.71,8.93-.12,15.33-4.33,19.21-12.26,3.64-7.46,2.83-14.68-1.92-21.45-2.46-3.52-5.65-6.29-9.25-8.58-.83-.47-1.42-1.26-1.64-2.19-.43-1.68-1.04-3.3-1.81-4.85-.37-.8-.18-1.14.57-1.49,2.89-1.27,5.9-2.24,8.99-2.9,5.76-1.23,11.57-1.65,16.49-1.76Z"/>
      <path class="cls-7" d="m377.47,350.47c0,6.65-1.05,13.06-4.62,18.82-4.11,6.61-10.08,10.78-17.65,11.88-6.98,1.01-13.15-1.46-17.87-6.92-3.16-3.66-4.94-8.03-5.67-12.73-.83-5.27-3.24-9.64-6.72-13.54-1.38-1.49-2.64-3.08-3.76-4.77-4.36-6.82-5.03-13.81-1.21-21.13,3.32-6.34,7.9-11.33,14.7-13.9,7.75-2.93,15.22-1.91,22.3,2.13,7.08,4.05,11.94,10.08,15.44,17.34,3.5,7.27,5.04,14.84,5.05,22.82Z"/>
      <path class="cls-9" d="m336.08,46.92c17.26.03,32.18,13.72,32.19,32.19.1,17.67-14.14,32.08-31.82,32.19-.12,0-.23,0-.35,0-18.47,0-32.2-15.12-32.2-32.17.04-17.76,14.42-32.15,32.18-32.21Z"/>
      <path class="cls-7" d="m394.18,39.49c-.05,2.81-.27,5.61-.67,8.39-.21,1.34-.18,1.41-1.49,1.46-2.44.13-4.87.39-7.27.78-5.37.83-10.58,2.16-15.51,4.48-1.32.62-1.32.62-2.16-.41-6.34-7.8-14.5-12.58-24.38-14.34-3.88-.7-7.85-.76-11.75-.17-2.09.32-2.13.3-2.53-1.69-.4-1.99-.95-3.94-1.66-5.83-.27-.72-.27-1.17.35-1.7,10.37-8.82,21.45-16.44,34.58-20.62,4.26-1.35,8.67-2.14,13.13-2.33.89-.04,1.78.15,2.58.54,5.84,2.75,10.03,7.17,12.88,12.89,2.75,5.51,3.8,11.58,3.89,18.55Z"/>
      <path class="cls-9" d="m296.17,79.66c-4.27-3.49-7.24-7.68-7.44-13.31-.12-3.58,1.12-6.69,4.11-8.88,3.43-2.5,7.29-3.19,11.72-2.68-5.51,7.52-8.39,15.67-8.39,24.87Z"/>
      <path class="cls-9" d="m375.94,79.7c4.36,3.68,7.18,9.6,4.66,15.8-2.41,5.9-7.37,9.29-13.72,8.96,2.73-3.68,5.05-7.43,6.58-11.63,1.53-4.2,2.24-8.49,2.49-13.13Z"/>
      <path class="cls-3" d="m155.8,224.23c0,4.19-.84,8.17-3.12,11.75-1.17,1.96-2.91,3.52-4.98,4.48-2.86,1.27-5.69,1.03-8.44-.34-1.99-.98-3.71-2.44-5.01-4.24-5.6-7.77-6.86-16.19-3.59-25.22.69-1.85,1.77-3.53,3.18-4.92,3.24-3.27,7.54-3.98,11.63-1.9,2.91,1.49,5,3.81,6.65,6.57,2.44,4.2,3.7,8.97,3.67,13.82Z"/>
      <path class="cls-3" d="m321.05,206.8c0-3.27.58-6.4,2.17-9.29,1.62-2.95,3.92-5.05,7.33-5.75,2.33-.48,4.48.03,6.57,1.03,1.84.87,3.46,2.14,4.75,3.71,5.29,6.46,7.01,13.78,5.03,21.92-.5,2.03-1.46,3.92-2.81,5.53-3.05,3.69-7.51,4.76-11.89,2.83-4.02-1.77-6.63-4.95-8.54-8.77-1.75-3.47-2.64-7.31-2.61-11.2Z"/>
      <path class="cls-1" d="m243.91,261.74c-4.67-.13-9.07-1.33-12.9-4.25-2.99-2.29-5.04-5.23-5.79-8.96-.93-4.59.34-8.61,3.36-12.1,2.91-3.39,6.72-5.25,11.03-6.1,5.05-1.06,10.32-.35,14.91,2.03,3.32,1.72,5.93,4.19,7.53,7.59,2.81,6.02,1.02,12.96-4.43,17.28-3.99,3.16-8.6,4.45-13.71,4.5Z"/>
      <path class="cls-2" d="m244.16,254.21c-2.21-.05-4.39-.54-6.41-1.44-.98-.45-1.88-1.04-2.68-1.75-3.47-3.14-3.43-7.49.14-10.52,2.78-2.36,6.11-3.16,9.64-3.02,2.83.12,5.52.87,7.81,2.67,2.15,1.69,3.42,3.79,3,6.64-.3,2.08-1.52,3.58-3.14,4.79-2.47,1.85-5.35,2.47-8.35,2.62Z"/>
    </g>
  </g>
</svg>